<svg width="301" height="121" viewBox="0 0 301 121" fill="none" xmlns="http://www.w3.org/2000/svg">
<rect width="301" height="120" transform="translate(0 0.768555)" fill="#FAFAFA"/>
<path d="M80.3945 46.4924C88.2789 46.4924 94.6705 52.8841 94.6705 60.7685C94.6705 68.6529 88.2789 75.0446 80.3945 75.0446C72.51 75.0446 66.1184 68.6529 66.1184 60.7685C66.1184 52.8841 72.51 46.4924 80.3945 46.4924Z" fill="#A3A3A3"/>
<path d="M66.1184 60.7686H80.3945V53.6305L66.1184 60.7686Z" fill="white"/>
<path d="M94.6705 60.7685H80.3944V67.9065L94.6705 60.7685Z" fill="white"/>
<path d="M119.836 68.6699C124.355 68.6699 127.035 65.8743 127.035 61.2392C127.035 56.6186 124.355 53.8376 119.937 53.8376H114.81V68.6699H119.836ZM117.497 66.3451V56.1624H119.785C122.798 56.1624 124.37 57.8426 124.37 61.2392C124.37 64.6504 122.798 66.3451 119.706 66.3451H117.497Z" fill="#737373"/>
<path d="M134.193 68.8871C136.785 68.8871 138.567 67.6197 139.031 65.686L136.583 65.4108C136.228 66.3523 135.359 66.8448 134.229 66.8448C132.534 66.8448 131.412 65.7295 131.39 63.8248H139.139V63.0209C139.139 59.1172 136.793 57.4008 134.055 57.4008C130.868 57.4008 128.79 59.7401 128.79 63.1729C128.79 66.6637 130.84 68.8871 134.193 68.8871ZM131.397 62.0576C131.477 60.6381 132.527 59.4431 134.091 59.4431C135.598 59.4431 136.612 60.544 136.626 62.0576H131.397Z" fill="#737373"/>
<path d="M149.945 60.486C149.583 58.603 148.077 57.4008 145.47 57.4008C142.79 57.4008 140.965 58.7189 140.972 60.7757C140.965 62.398 141.964 63.4699 144.101 63.9117L145.998 64.31C147.02 64.5345 147.498 64.9473 147.498 65.5774C147.498 66.3378 146.672 66.91 145.426 66.91C144.224 66.91 143.442 66.3885 143.217 65.3891L140.661 65.6353C140.987 67.6777 142.703 68.8871 145.433 68.8871C148.214 68.8871 150.177 67.4459 150.184 65.3384C150.177 63.7523 149.156 62.7819 147.056 62.3256L145.158 61.92C144.028 61.6665 143.579 61.2755 143.587 60.6309C143.579 59.8777 144.412 59.3562 145.506 59.3562C146.715 59.3562 147.353 60.0153 147.555 60.7468L149.945 60.486Z" fill="#737373"/>
<path d="M152.142 68.6699H154.764V57.5457H152.142V68.6699ZM153.46 55.9668C154.293 55.9668 154.974 55.3295 154.974 54.5473C154.974 53.7579 154.293 53.1206 153.46 53.1206C152.62 53.1206 151.94 53.7579 151.94 54.5473C151.94 55.3295 152.62 55.9668 153.46 55.9668Z" fill="#737373"/>
<path d="M162.094 73.0732C165.099 73.0732 167.316 71.6971 167.316 68.8509V57.5457H164.73V59.3852H164.585C164.187 58.5813 163.354 57.4008 161.391 57.4008C158.82 57.4008 156.8 59.4142 156.8 63.0715C156.8 66.7 158.82 68.5105 161.384 68.5105C163.289 68.5105 164.18 67.4894 164.585 66.671H164.716V68.7785C164.716 70.4153 163.629 71.0888 162.137 71.0888C160.559 71.0888 159.863 70.3428 159.545 69.691L157.184 70.2632C157.662 71.8203 159.262 73.0732 162.094 73.0732ZM162.116 66.4537C160.385 66.4537 159.472 65.1066 159.472 63.0571C159.472 61.0365 160.37 59.5518 162.116 59.5518C163.803 59.5518 164.73 60.9496 164.73 63.0571C164.73 65.1791 163.789 66.4537 162.116 66.4537Z" fill="#737373"/>
<path d="M172.42 62.1518C172.42 60.544 173.391 59.617 174.774 59.617C176.128 59.617 176.939 60.5078 176.939 61.9924V68.6699H179.561V61.5869C179.568 58.9217 178.048 57.4008 175.752 57.4008C174.086 57.4008 172.942 58.1975 172.435 59.4359H172.304V57.5457H169.799V68.6699H172.42V62.1518Z" fill="#737373"/>
<path d="M186.947 68.8871C189.54 68.8871 191.322 67.6197 191.785 65.686L189.337 65.4108C188.982 66.3523 188.113 66.8448 186.983 66.8448C185.289 66.8448 184.166 65.7295 184.144 63.8248H191.894V63.0209C191.894 59.1172 189.547 57.4008 186.81 57.4008C183.623 57.4008 181.544 59.7401 181.544 63.1729C181.544 66.6637 183.594 68.8871 186.947 68.8871ZM184.152 62.0576C184.231 60.6381 185.281 59.4431 186.846 59.4431C188.352 59.4431 189.366 60.544 189.381 62.0576H184.152Z" fill="#737373"/>
<path d="M193.908 68.6699H196.529V62.13C196.529 60.7178 197.594 59.7184 199.035 59.7184C199.477 59.7184 200.027 59.798 200.252 59.8704V57.4588C200.013 57.4153 199.6 57.3863 199.31 57.3863C198.036 57.3863 196.971 58.1106 196.566 59.3997H196.45V57.5457H193.908V68.6699Z" fill="#737373"/>
<path d="M210.582 60.486C210.22 58.603 208.713 57.4008 206.106 57.4008C203.427 57.4008 201.602 58.7189 201.609 60.7757C201.602 62.398 202.601 63.4699 204.737 63.9117L206.635 64.31C207.656 64.5345 208.134 64.9473 208.134 65.5774C208.134 66.3378 207.308 66.91 206.063 66.91C204.861 66.91 204.078 66.3885 203.854 65.3891L201.297 65.6353C201.623 67.6777 203.34 68.8871 206.07 68.8871C208.851 68.8871 210.814 67.4459 210.821 65.3384C210.814 63.7523 209.793 62.7819 207.692 62.3256L205.795 61.92C204.665 61.6665 204.216 61.2755 204.223 60.6309C204.216 59.8777 205.049 59.3562 206.142 59.3562C207.352 59.3562 207.989 60.0153 208.192 60.7468L210.582 60.486Z" fill="#737373"/>
<path d="M215.401 62.1518C215.401 60.544 216.4 59.617 217.805 59.617C219.181 59.617 219.992 60.4933 219.992 61.9924V68.6699H222.614V61.5869C222.614 58.9 221.093 57.4008 218.783 57.4008C217.074 57.4008 215.987 58.1757 215.473 59.4359H215.343V53.8376H212.779V68.6699H215.401V62.1518Z" fill="#737373"/>
<path d="M225.082 68.6699H227.704V57.5457H225.082V68.6699ZM226.401 55.9668C227.233 55.9668 227.914 55.3295 227.914 54.5473C227.914 53.7579 227.233 53.1206 226.401 53.1206C225.56 53.1206 224.88 53.7579 224.88 54.5473C224.88 55.3295 225.56 55.9668 226.401 55.9668Z" fill="#737373"/>
<path d="M230.196 72.8414H232.818V66.9172H232.927C233.339 67.7284 234.201 68.8654 236.113 68.8654C238.735 68.8654 240.698 66.7869 240.698 63.1222C240.698 59.4142 238.677 57.4008 236.106 57.4008C234.143 57.4008 233.325 58.5813 232.927 59.3852H232.774V57.5457H230.196V72.8414ZM232.767 63.1078C232.767 60.9496 233.694 59.5518 235.382 59.5518C237.127 59.5518 238.025 61.0365 238.025 63.1078C238.025 65.1935 237.113 66.7144 235.382 66.7144C233.709 66.7144 232.767 65.266 232.767 63.1078Z" fill="#737373"/>
</svg>
